<svg xmlns="http://www.w3.org/2000/svg" version="1.1" xmlns:xlink="http://www.w3.org/1999/xlink" xmlns:svgjs="http://svgjs.dev/svgjs" width="2000" height="1252" viewBox="0 0 2000 1252"><g transform="matrix(1,0,0,1,-1.2121212121212466,-2.01935483870966)"><svg viewBox="0 0 396 248" data-background-color="#ffffff" preserveAspectRatio="xMidYMid meet" height="1252" width="2000" xmlns="http://www.w3.org/2000/svg" xmlns:xlink="http://www.w3.org/1999/xlink"><g id="tight-bounds" transform="matrix(1,0,0,1,0.2400000000000091,0.4000000000000057)"><svg viewBox="0 0 395.52 247.2" height="247.2" width="395.52"><g><svg></svg></g><g><svg viewBox="0 0 395.52 247.2" height="247.2" width="395.52"><g transform="matrix(1,0,0,1,136.4339177142857,47.215199999999996)"><svg viewBox="0 0 122.65216457142857 152.7696" height="152.7696" width="122.65216457142857"><g><svg viewBox="0 0 122.65216457142857 152.7696" height="152.7696" width="122.65216457142857"><g><svg viewBox="0 0 122.65216457142857 152.7696" height="152.7696" width="122.65216457142857"><g><svg viewBox="0 0 122.65216457142857 152.7696" height="152.7696" width="122.65216457142857"><g id="textblocktransform"><svg viewBox="0 0 122.65216457142857 152.7696" height="152.7696" width="122.65216457142857" id="textblock"><g><svg viewBox="0 0 122.65216457142857 152.7696" height="152.7696" width="122.65216457142857"><g transform="matrix(1,0,0,1,0,0)"><svg width="122.65216457142857" viewBox="2.5 -35 28.1 35" height="152.7696" data-palette-color="#a9a9a9"><path d="M5.55-32.25L2.5-32.25 2.5-35 14.55-35Q19.7-35 22.5-32.75 25.3-30.5 25.3-26.05L25.3-26.05Q25.3-23.1 23.23-19.93 21.15-16.75 19.15-15.6L19.15-15.6 27.05-2.75 30.6-2.75 30.6 0 25.1 0 16.2-14.35 8.95-14.35 8.95-2.75 12.6-2.75 12.6 0 2.5 0 2.5-2.75 5.55-2.75 5.55-32.25ZM14.3-32.25L14.3-32.25 8.95-32.25 8.95-17.1 17.2-17.1Q21.9-21.4 21.9-25.75L21.9-25.75Q21.9-28.95 19.95-30.6 18-32.25 14.3-32.25Z" opacity="1" transform="matrix(1,0,0,1,0,0)" fill="#a9a9a9" class="wordmark-text-0" data-fill-palette-color="primary" id="text-0"></path></svg></g></svg></g></svg></g></svg></g></svg></g></svg></g></svg></g><g><path d="M0 123.6c0-68.262 55.338-123.6 123.6-123.6 30.402 0 58.24 10.976 79.768 29.183l-11.147 0c-19.26-14.022-42.974-22.294-68.621-22.295-64.458 0-116.712 52.254-116.712 116.712 0 64.458 52.254 116.712 116.712 116.712 25.647 0 49.361-8.272 68.621-22.295l11.147 0c-21.528 18.206-49.366 29.183-79.768 29.183-68.262 0-123.6-55.338-123.6-123.6z" fill="#838383" stroke="transparent" data-fill-palette-color="tertiary"></path></g></svg></g><defs></defs></svg><rect width="395.52" height="247.2" fill="none" stroke="none" visibility="hidden"></rect></g></svg></g></svg>